<?xml version="1.0" standalone="no"?>
<!DOCTYPE svg PUBLIC "-//W3C//DTD SVG 20010904//EN"
 "http://www.w3.org/TR/2001/REC-SVG-20010904/DTD/svg10.dtd">
<svg version="1.0" xmlns="http://www.w3.org/2000/svg"
 width="1080.000000pt" height="1080.000000pt" viewBox="0 0 1080.000000 1080.000000"
 preserveAspectRatio="xMidYMid meet">

<g transform="translate(0.000000,1080.000000) scale(0.100000,-0.100000)"
fill="#000000" stroke="none">
<path d="M5070 10789 c-667 -36 -1389 -224 -2000 -520 -579 -281 -1034 -602
-1471 -1038 -366 -366 -641 -725 -891 -1161 -799 -1397 -928 -3100 -348 -4605
276 -715 678 -1334 1220 -1875 493 -494 1023 -857 1660 -1138 873 -385 1909
-534 2837 -408 735 100 1375 313 1991 663 679 385 1281 930 1734 1569 708 998
1060 2217 988 3427 -72 1210 -530 2336 -1319 3242 -401 460 -882 853 -1417
1156 -902 511 -1920 745 -2984 688z m-2440 -2673 c94 -17 193 -55 264 -100 30
-19 604 -447 1275 -950 672 -504 1225 -916 1231 -916 6 0 558 411 1228 913
669 503 1242 930 1272 950 76 51 164 84 266 102 109 19 155 19 252 0 158 -32
294 -104 402 -215 87 -89 140 -173 178 -285 l27 -80 3 -2215 c1 -1436 -1
-2231 -7 -2262 -35 -160 -174 -308 -343 -365 -48 -15 -114 -18 -675 -21 l-623
-3 0 1405 0 1406 -982 -737 c-541 -405 -990 -737 -998 -737 -8 0 -457 332
-997 737 l-983 737 0 -1405 0 -1405 -597 0 c-481 0 -611 3 -666 15 -174 37
-321 173 -371 344 -14 49 -16 272 -16 2261 0 2162 0 2208 20 2284 69 269 301
484 585 540 90 18 162 19 255 2z"/>
</g>
</svg>
