<?xml version="1.0" standalone="no"?>
<!DOCTYPE svg PUBLIC "-//W3C//DTD SVG 20010904//EN"
 "http://www.w3.org/TR/2001/REC-SVG-20010904/DTD/svg10.dtd">
<svg version="1.0" xmlns="http://www.w3.org/2000/svg"
 width="1080.000000pt" height="1080.000000pt" viewBox="0 0 1080.000000 1080.000000"
 preserveAspectRatio="xMidYMid meet">

<g transform="translate(0.000000,1080.000000) scale(0.100000,-0.100000)"
fill="#000000" stroke="none">
<path d="M5070 10789 c-667 -36 -1389 -224 -2000 -520 -579 -281 -1034 -602
-1471 -1038 -366 -366 -641 -725 -891 -1161 -799 -1397 -928 -3100 -348 -4605
276 -715 678 -1334 1220 -1875 493 -494 1023 -857 1660 -1138 873 -385 1909
-534 2837 -408 735 100 1375 313 1991 663 679 385 1281 930 1734 1569 708 998
1060 2217 988 3427 -72 1210 -530 2336 -1319 3242 -401 460 -882 853 -1417
1156 -902 511 -1920 745 -2984 688z m2215 -1922 c176 -24 344 -71 540 -152
291 -120 570 -331 776 -587 194 -242 357 -607 414 -929 27 -152 34 -469 41
-1829 8 -1760 0 -2009 -81 -2326 -132 -518 -458 -951 -913 -1214 -197 -113
-400 -188 -679 -250 l-133 -30 -1742 0 c-959 0 -1822 5 -1918 10 -149 7 -195
14 -310 44 -585 151 -1030 478 -1300 956 -93 166 -204 459 -235 623 -26 135
-34 508 -39 1872 -6 1392 2 1968 29 2125 65 387 232 751 467 1020 324 371 760
595 1303 671 122 17 237 18 1895 15 1551 -3 1780 -5 1885 -19z"/>
<path d="M4015 8200 c-430 -6 -477 -9 -556 -28 -366 -88 -651 -273 -829 -538
-103 -151 -198 -385 -220 -540 -21 -145 -29 -736 -29 -2044 -1 -1285 5 -1556
34 -1722 20 -114 75 -278 130 -391 201 -407 628 -666 1166 -707 170 -13 2784
-13 3184 0 318 10 414 22 551 71 229 81 378 173 540 334 227 225 349 475 395
805 9 62 13 557 16 1817 l4 1731 -41 143 c-69 239 -118 349 -221 499 -152 223
-341 371 -599 471 -162 63 -301 89 -530 99 -216 10 -2256 9 -2995 0z m3414
-611 c134 -23 244 -109 304 -237 56 -120 49 -283 -16 -392 -31 -51 -96 -119
-141 -147 -96 -61 -242 -81 -353 -48 -124 37 -236 149 -274 277 -30 98 -24
229 13 311 35 74 113 156 187 196 95 50 162 60 280 40z m-1699 -498 c324 -61
620 -205 882 -428 293 -250 514 -617 620 -1028 17 -68 21 -121 25 -345 7 -365
-13 -489 -123 -763 -249 -620 -803 -1063 -1459 -1167 -264 -42 -514 -32 -755
29 -847 215 -1440 972 -1440 1836 0 650 330 1249 888 1610 161 104 432 213
629 254 144 30 139 30 393 26 180 -3 260 -9 340 -24z"/>
<path d="M5125 6420 c-496 -113 -878 -524 -945 -1017 -18 -132 -8 -365 20
-467 76 -282 266 -552 495 -704 256 -171 508 -234 812 -203 135 14 258 47 373
102 259 123 464 323 585 573 101 208 137 405 116 639 -18 203 -77 374 -186
537 -69 104 -217 259 -322 339 -136 103 -340 186 -517 210 -121 17 -337 12
-431 -9z"/>
</g>
</svg>
