<?xml version="1.0" standalone="no"?>
<!DOCTYPE svg PUBLIC "-//W3C//DTD SVG 20010904//EN"
 "http://www.w3.org/TR/2001/REC-SVG-20010904/DTD/svg10.dtd">
<svg version="1.0" xmlns="http://www.w3.org/2000/svg"
 width="1080.000000pt" height="1080.000000pt" viewBox="0 0 1080.000000 1080.000000"
 preserveAspectRatio="xMidYMid meet">

<g transform="translate(0.000000,1080.000000) scale(0.100000,-0.100000)"
fill="#000000" stroke="none">
<path d="M5070 10789 c-667 -36 -1389 -224 -2000 -520 -579 -281 -1034 -602
-1471 -1038 -366 -366 -641 -725 -891 -1161 -799 -1397 -928 -3100 -348 -4605
276 -715 678 -1334 1220 -1875 493 -494 1023 -857 1660 -1138 873 -385 1909
-534 2837 -408 735 100 1375 313 1991 663 679 385 1281 930 1734 1569 708 998
1060 2217 988 3427 -72 1210 -530 2336 -1319 3242 -401 460 -882 853 -1417
1156 -902 511 -1920 745 -2984 688z m801 -1289 c168 -24 364 -101 522 -206 92
-61 198 -163 1066 -1024 530 -525 1000 -995 1044 -1045 227 -256 332 -516 344
-845 10 -298 -57 -533 -225 -790 -47 -72 -204 -234 -1038 -1070 l-984 -985
-465 465 -465 465 932 932 933 933 -930 930 c-511 511 -934 930 -940 930 -6 0
-638 -628 -1405 -1395 l-1395 -1395 1400 -1400 1400 -1400 467 467 468 468
467 -468 468 -467 -490 -491 c-327 -327 -522 -515 -587 -564 -242 -184 -535
-275 -842 -262 -280 12 -517 95 -742 259 -40 30 -686 668 -1550 1532 -1328
1328 -1488 1491 -1543 1575 -160 243 -231 473 -231 751 0 286 90 563 255 781
42 55 575 595 1552 1570 1281 1280 1500 1494 1573 1541 287 188 596 256 941
208z"/>
</g>
</svg>
